<?xml version="1.0" standalone="no"?>
<!DOCTYPE svg PUBLIC "-//W3C//DTD SVG 20010904//EN"
 "http://www.w3.org/TR/2001/REC-SVG-20010904/DTD/svg10.dtd">
<svg version="1.0" xmlns="http://www.w3.org/2000/svg"
 width="512.000000pt" height="512.000000pt" viewBox="0 0 512.000000 512.000000"
 preserveAspectRatio="xMidYMid meet">
<metadata>
Created by potrace 1.11, written by Peter Selinger 2001-2013
</metadata>
<g transform="translate(0.000000,512.000000) scale(0.100000,-0.100000)"
fill="#000000" stroke="none">
<path d="M2449 5006 c-2 -2 -38 -6 -79 -10 -92 -8 -118 -12 -245 -37 -96 -19
-138 -31 -250 -67 -44 -15 -154 -17 -953 -22 -788 -4 -904 -7 -912 -20 -6 -9
-10 -401 -10 -1011 0 -1147 -12 -1029 106 -1029 l69 0 -2 -212 c-1 -190 3
-266 21 -388 3 -19 8 -55 11 -80 3 -25 9 -52 11 -60 3 -8 8 -26 10 -40 32
-168 127 -435 211 -590 69 -127 89 -160 155 -255 344 -503 846 -854 1433
-1001 78 -20 95 -24 125 -29 14 -2 72 -12 130 -21 77 -13 166 -18 335 -18 290
0 379 12 715 99 86 22 296 107 410 166 380 195 725 514 959 887 93 149 228
440 256 555 7 25 10 27 64 27 44 0 62 5 79 20 l22 21 0 928 c0 893 -1 930 -19
952 -18 22 -23 23 -191 24 l-173 1 -68 102 c-125 190 -312 402 -464 527 -26
22 -62 52 -79 66 -35 29 -235 165 -281 190 -322 178 -558 256 -950 314 -46 7
-440 17 -446 11z"/>
</g>
</svg>
